<mxfile host="app.diagrams.net" modified="2024-06-03T11:31:53.439Z" agent="Mozilla/5.0 (X11; Linux x86_64) AppleWebKit/537.36 (KHTML, like Gecko) Chrome/125.0.0.0 Safari/537.36" etag="E0mh6ljNb8y7xYI3Mvok" version="24.4.13" type="device">
  <diagram name="Page-1" id="u8ZHmbaBgCf-uyI9eniG">
    <mxGraphModel dx="1364" dy="799" grid="1" gridSize="10" guides="1" tooltips="1" connect="1" arrows="1" fold="1" page="1" pageScale="1" pageWidth="1169" pageHeight="827" math="0" shadow="0">
      <root>
        <mxCell id="0" />
        <mxCell id="1" parent="0" />
        <mxCell id="fg8rCV5gMZadqhiNJhdd-1" value="" style="rounded=1;whiteSpace=wrap;html=1;" vertex="1" parent="1">
          <mxGeometry x="360" y="20" width="450" height="130" as="geometry" />
        </mxCell>
        <mxCell id="fg8rCV5gMZadqhiNJhdd-2" value="&lt;b&gt;CONFIG&lt;/b&gt;" style="text;html=1;align=center;verticalAlign=middle;whiteSpace=wrap;rounded=0;" vertex="1" parent="1">
          <mxGeometry x="560" y="30" width="60" height="30" as="geometry" />
        </mxCell>
        <mxCell id="fg8rCV5gMZadqhiNJhdd-3" value="picture_config.yaml" style="rounded=0;whiteSpace=wrap;html=1;" vertex="1" parent="1">
          <mxGeometry x="400" y="80" width="150" height="40" as="geometry" />
        </mxCell>
        <mxCell id="fg8rCV5gMZadqhiNJhdd-5" value="plate_config.yaml" style="rounded=0;whiteSpace=wrap;html=1;" vertex="1" parent="1">
          <mxGeometry x="620" y="80" width="150" height="40" as="geometry" />
        </mxCell>
        <mxCell id="fg8rCV5gMZadqhiNJhdd-6" value="" style="rounded=1;whiteSpace=wrap;html=1;" vertex="1" parent="1">
          <mxGeometry x="120" y="170" width="430" height="460" as="geometry" />
        </mxCell>
        <mxCell id="fg8rCV5gMZadqhiNJhdd-7" value="" style="rounded=1;whiteSpace=wrap;html=1;" vertex="1" parent="1">
          <mxGeometry x="620" y="170" width="400" height="460" as="geometry" />
        </mxCell>
        <mxCell id="fg8rCV5gMZadqhiNJhdd-8" value="&lt;b&gt;&lt;font style=&quot;font-size: 16px;&quot;&gt;class Picture&lt;/font&gt;&lt;/b&gt;" style="text;html=1;align=center;verticalAlign=middle;whiteSpace=wrap;rounded=0;" vertex="1" parent="1">
          <mxGeometry x="160" y="190" width="140" height="30" as="geometry" />
        </mxCell>
        <mxCell id="fg8rCV5gMZadqhiNJhdd-9" value="&lt;b&gt;&lt;font style=&quot;font-size: 16px;&quot;&gt;class Plate&lt;/font&gt;&lt;/b&gt;" style="text;html=1;align=center;verticalAlign=middle;whiteSpace=wrap;rounded=0;" vertex="1" parent="1">
          <mxGeometry x="680" y="200" width="140" height="30" as="geometry" />
        </mxCell>
        <mxCell id="fg8rCV5gMZadqhiNJhdd-10" value="def preprocess" style="rounded=1;whiteSpace=wrap;html=1;" vertex="1" parent="1">
          <mxGeometry x="170" y="240" width="315" height="40" as="geometry" />
        </mxCell>
        <mxCell id="fg8rCV5gMZadqhiNJhdd-11" value="def blue_rectangle_finder" style="rounded=1;whiteSpace=wrap;html=1;" vertex="1" parent="1">
          <mxGeometry x="170" y="290" width="315" height="40" as="geometry" />
        </mxCell>
        <mxCell id="fg8rCV5gMZadqhiNJhdd-12" value="def find_solidity" style="rounded=1;whiteSpace=wrap;html=1;" vertex="1" parent="1">
          <mxGeometry x="170" y="343.5" width="315" height="40" as="geometry" />
        </mxCell>
        <mxCell id="fg8rCV5gMZadqhiNJhdd-13" value="&lt;div&gt;def contouring_plate&lt;/div&gt;" style="rounded=1;whiteSpace=wrap;html=1;" vertex="1" parent="1">
          <mxGeometry x="170" y="400" width="315" height="40" as="geometry" />
        </mxCell>
        <mxCell id="fg8rCV5gMZadqhiNJhdd-14" value="&lt;div&gt;def contouring_plate_mod2&lt;/div&gt;" style="rounded=1;whiteSpace=wrap;html=1;" vertex="1" parent="1">
          <mxGeometry x="170" y="450" width="315" height="40" as="geometry" />
        </mxCell>
        <mxCell id="fg8rCV5gMZadqhiNJhdd-15" value="def corners_matching" style="rounded=1;whiteSpace=wrap;html=1;" vertex="1" parent="1">
          <mxGeometry x="170" y="500" width="315" height="40" as="geometry" />
        </mxCell>
        <mxCell id="fg8rCV5gMZadqhiNJhdd-16" value="def plate_get" style="rounded=1;whiteSpace=wrap;html=1;" vertex="1" parent="1">
          <mxGeometry x="170" y="550" width="315" height="40" as="geometry" />
        </mxCell>
        <mxCell id="fg8rCV5gMZadqhiNJhdd-17" value="def preprocess" style="rounded=1;whiteSpace=wrap;html=1;" vertex="1" parent="1">
          <mxGeometry x="810" y="190" width="167.5" height="40" as="geometry" />
        </mxCell>
        <mxCell id="fg8rCV5gMZadqhiNJhdd-18" value="def chars_recognize" style="rounded=1;whiteSpace=wrap;html=1;" vertex="1" parent="1">
          <mxGeometry x="662.5" y="240" width="315" height="40" as="geometry" />
        </mxCell>
        <mxCell id="fg8rCV5gMZadqhiNJhdd-19" value="def char_contours_get" style="rounded=1;whiteSpace=wrap;html=1;" vertex="1" parent="1">
          <mxGeometry x="662.5" y="293.5" width="315" height="40" as="geometry" />
        </mxCell>
        <mxCell id="fg8rCV5gMZadqhiNJhdd-20" value="def create_matching_template" style="rounded=1;whiteSpace=wrap;html=1;" vertex="1" parent="1">
          <mxGeometry x="662.5" y="350" width="315" height="40" as="geometry" />
        </mxCell>
        <mxCell id="fg8rCV5gMZadqhiNJhdd-21" value="def check_string" style="rounded=1;whiteSpace=wrap;html=1;" vertex="1" parent="1">
          <mxGeometry x="662.5" y="400" width="315" height="40" as="geometry" />
        </mxCell>
        <mxCell id="fg8rCV5gMZadqhiNJhdd-22" value="def replace_char_at_index" style="rounded=1;whiteSpace=wrap;html=1;" vertex="1" parent="1">
          <mxGeometry x="662.5" y="450" width="315" height="40" as="geometry" />
        </mxCell>
        <mxCell id="fg8rCV5gMZadqhiNJhdd-23" value="def remove_first_duplicate_or_trim" style="rounded=1;whiteSpace=wrap;html=1;" vertex="1" parent="1">
          <mxGeometry x="662.5" y="500" width="315" height="40" as="geometry" />
        </mxCell>
        <mxCell id="fg8rCV5gMZadqhiNJhdd-24" value="def text_get" style="rounded=1;whiteSpace=wrap;html=1;" vertex="1" parent="1">
          <mxGeometry x="662.5" y="550" width="315" height="40" as="geometry" />
        </mxCell>
      </root>
    </mxGraphModel>
  </diagram>
</mxfile>
